<svg id="US" xmlns="http://www.w3.org/2000/svg" xmlns:xlink="http://www.w3.org/1999/xlink" viewBox="0 0 164.86 40"><defs><style>.cls-1{fill:#a6a6a6;}.cls-2{fill:#fff;}.cls-3,.cls-4{fill-rule:evenodd;}.cls-3{fill:url(#linear-gradient);}.cls-4{fill:none;}</style><linearGradient id="linear-gradient" x1="20.1" y1="7.42" x2="20.1" y2="32.58" gradientUnits="userSpaceOnUse"><stop offset="0" stop-color="#f452ff"/><stop offset="1" stop-color="#832bc1"/></linearGradient></defs><path class="cls-1" d="M155.33,0H7.52a13.51,13.51,0,0,0-2,.18,6.74,6.74,0,0,0-1.9.63A6.07,6.07,0,0,0,2,2,6.07,6.07,0,0,0,.82,3.62a6.74,6.74,0,0,0-.63,1.9,12.18,12.18,0,0,0-.17,2c0,.31,0,.62,0,.92V31.56c0,.31,0,.61,0,.92a12.18,12.18,0,0,0,.17,2,6.8,6.8,0,0,0,.63,1.91A6.19,6.19,0,0,0,2,38a6.07,6.07,0,0,0,1.62,1.18,6.74,6.74,0,0,0,1.9.63,13.51,13.51,0,0,0,2,.18H157.33a13.28,13.28,0,0,0,2-.18,6.8,6.8,0,0,0,1.91-.63A6.07,6.07,0,0,0,162.86,38a6.31,6.31,0,0,0,1.8-3.52,13.39,13.39,0,0,0,.18-2c0-.31,0-.61,0-.92s0-.73,0-1.1V9.54c0-.37,0-.73,0-1.1s0-.61,0-.92a13.39,13.39,0,0,0-.18-2,6.42,6.42,0,0,0-.62-1.9A6.3,6.3,0,0,0,162.86,2,6.07,6.07,0,0,0,161.24.82a6.8,6.8,0,0,0-1.91-.63,13.28,13.28,0,0,0-2-.18h-2Z"/><path class="cls-2" d="M8.44,39.12h-.9A11.52,11.52,0,0,1,5.67,39,5.89,5.89,0,0,1,4,38.4a5.16,5.16,0,0,1-1.39-1,5.19,5.19,0,0,1-1-1.4,5.79,5.79,0,0,1-.55-1.66,12.1,12.1,0,0,1-.16-1.87c0-.21,0-.92,0-.92V8.44s0-.69,0-.89a12,12,0,0,1,.16-1.87A5.69,5.69,0,0,1,1.6,4a5.06,5.06,0,0,1,1-1.4A5.52,5.52,0,0,1,4,1.6a5.79,5.79,0,0,1,1.66-.55A12.1,12.1,0,0,1,7.54.89H157.32a12.08,12.08,0,0,1,1.86.16,5.85,5.85,0,0,1,1.67.55A5.49,5.49,0,0,1,163.26,4a5.61,5.61,0,0,1,.54,1.65A12.27,12.27,0,0,1,164,7.55c0,.29,0,.59,0,.89v23.1c0,.33,0,.62,0,.93a11.79,11.79,0,0,1-.17,1.85,5.55,5.55,0,0,1-.54,1.67,5.63,5.63,0,0,1-1,1.39,5.52,5.52,0,0,1-1.4,1,5.66,5.66,0,0,1-1.67.55,11.43,11.43,0,0,1-1.87.16H8.44Z"/><path class="cls-3" d="M32.18,29.23a5.31,5.31,0,0,1-1.61,2.11,5.07,5.07,0,0,1-1.77.92,10.93,10.93,0,0,1-3,.32H14.44a10.88,10.88,0,0,1-3-.32,5.22,5.22,0,0,1-1.78-.92A5.41,5.41,0,0,1,8,29.23a9.9,9.9,0,0,1-.49-3.57h0V14.34h0A9.9,9.9,0,0,1,8,10.77,5.41,5.41,0,0,1,9.62,8.66a5.22,5.22,0,0,1,1.78-.92,10.88,10.88,0,0,1,3-.32H25.76a10.93,10.93,0,0,1,3,.32,5.07,5.07,0,0,1,1.77.92,5.31,5.31,0,0,1,1.61,2.11,9.93,9.93,0,0,1,.5,3.57V25.66A9.93,9.93,0,0,1,32.18,29.23Z"/><path class="cls-4" d="M32.18,29.23a5.31,5.31,0,0,1-1.61,2.11,5.07,5.07,0,0,1-1.77.92,10.93,10.93,0,0,1-3,.32H14.44a10.88,10.88,0,0,1-3-.32,5.22,5.22,0,0,1-1.78-.92A5.41,5.41,0,0,1,8,29.23a9.9,9.9,0,0,1-.49-3.57h0V14.34h0A9.9,9.9,0,0,1,8,10.77,5.41,5.41,0,0,1,9.62,8.66a5.22,5.22,0,0,1,1.78-.92,10.88,10.88,0,0,1,3-.32H25.76a10.93,10.93,0,0,1,3,.32,5.07,5.07,0,0,1,1.77.92,5.31,5.31,0,0,1,1.61,2.11,9.93,9.93,0,0,1,.5,3.57V25.66A9.93,9.93,0,0,1,32.18,29.23Z"/><path class="cls-2" d="M21.92,21.88a2.49,2.49,0,0,0-1.82-.65,2.49,2.49,0,0,0-1.82.65,1.14,1.14,0,0,0-.34.73,9.56,9.56,0,0,0,0,1.9c.07.77.19,1.8.36,2.85a11.21,11.21,0,0,0,.29,1.43,1.43,1.43,0,0,0,1.47.88,1.43,1.43,0,0,0,1.47-.88,11.21,11.21,0,0,0,.29-1.43c.17-1.05.29-2.08.36-2.85a9.56,9.56,0,0,0,0-1.9A1.19,1.19,0,0,0,21.92,21.88ZM18,18.33a2.06,2.06,0,1,0,2.06-2.06A2.06,2.06,0,0,0,18,18.33Zm2-8.12a8.85,8.85,0,0,0-2.91,17.2.12.12,0,0,0,.16-.13c0-.31-.09-.61-.13-.91a.28.28,0,0,0-.18-.24,7.72,7.72,0,1,1,6.16,0,.32.32,0,0,0-.18.24c0,.3-.08.6-.13.91a.12.12,0,0,0,.16.13,8.85,8.85,0,0,0-3-17.2Zm-.16,4.06a4.79,4.79,0,0,1,3.47,8.28.36.36,0,0,0-.12.29,8.57,8.57,0,0,1,0,1,.12.12,0,0,0,.18.11,5.93,5.93,0,1,0-6.67,0,.12.12,0,0,0,.18-.11,8.57,8.57,0,0,1,0-1,.39.39,0,0,0-.11-.29,4.73,4.73,0,0,1-1.52-3.62A4.8,4.8,0,0,1,19.92,14.27Z"/><path d="M46.22,27.82H41.49l-1.14,3.36h-2l4.48-12.42h2.08L49.4,31.18h-2ZM42,26.27h3.75l-1.85-5.44h-.05Z"/><path d="M59.08,26.65c0,2.82-1.51,4.62-3.78,4.62a3.07,3.07,0,0,1-2.85-1.58h0v4.48H50.55v-12h1.8v1.51h0A3.2,3.2,0,0,1,55.27,22C57.57,22,59.08,23.85,59.08,26.65Zm-1.91,0c0-1.83-1-3-2.39-3s-2.38,1.23-2.38,3,1,3.05,2.38,3.05S57.17,28.5,57.17,26.65Z"/><path d="M69.05,26.65c0,2.82-1.51,4.62-3.78,4.62a3.06,3.06,0,0,1-2.85-1.58h0v4.48H60.52v-12h1.8v1.51h0A3.22,3.22,0,0,1,65.23,22C67.53,22,69.05,23.85,69.05,26.65Zm-1.91,0c0-1.83-1-3-2.4-3s-2.37,1.23-2.37,3,1,3.05,2.37,3.05S67.14,28.5,67.14,26.65Z"/><path d="M70.55,18.76h1.86V31.18H70.55Z"/><path d="M82.09,28.52c-.25,1.64-1.86,2.77-3.9,2.77-2.64,0-4.27-1.76-4.27-4.59S75.56,22,78.11,22s4.08,1.72,4.08,4.47v.64h-6.4v.11a2.36,2.36,0,0,0,2.44,2.56,2.05,2.05,0,0,0,2.09-1.27Zm-6.29-2.7h4.53a2.18,2.18,0,0,0-2.22-2.3A2.3,2.3,0,0,0,75.8,25.82Z"/><path d="M92.09,18.76a3.9,3.9,0,0,1,4.09,4.08A4,4,0,0,1,92,26.94H89.36v4.24H87.43V18.76Zm-2.73,6.56h2.21a2.32,2.32,0,0,0,2.63-2.47,2.31,2.31,0,0,0-2.62-2.46H89.36Z"/><path d="M96.85,26.65c0-2.85,1.68-4.64,4.3-4.64s4.29,1.79,4.29,4.64-1.66,4.64-4.29,4.64S96.85,29.51,96.85,26.65Zm6.7,0c0-1.95-.9-3.11-2.4-3.11s-2.4,1.17-2.4,3.11.89,3.11,2.4,3.11S103.55,28.61,103.55,26.65Z"/><path d="M106.75,26.65c0-2.79,1.54-4.62,3.78-4.62a3,3,0,0,1,2.84,1.6h0V18.76h1.87V31.18h-1.81V29.64h0a3.08,3.08,0,0,1-2.88,1.63C108.29,31.27,106.75,29.45,106.75,26.65Zm1.9,0c0,1.86.95,3.05,2.39,3.05s2.39-1.21,2.39-3.05-1-3-2.39-3S108.65,24.81,108.65,26.65Z"/><path d="M123.18,25.24a2,2,0,0,0-2.13-1.67c-1.43,0-2.38,1.2-2.38,3.08s1,3.09,2.4,3.09a1.93,1.93,0,0,0,2.11-1.62H125a3.61,3.61,0,0,1-3.92,3.17c-2.58,0-4.27-1.76-4.27-4.64S118.47,22,121,22A3.65,3.65,0,0,1,125,25.24Z"/><path d="M126.11,28.61c0-1.59,1.22-2.54,3.37-2.67L132,25.8v-.69c0-1-.67-1.57-1.79-1.57a1.74,1.74,0,0,0-1.91,1.27h-1.73c0-1.64,1.57-2.8,3.69-2.8s3.59,1.18,3.59,3v6.21H132V29.69h0a3.22,3.22,0,0,1-2.86,1.64A2.74,2.74,0,0,1,126.11,28.61Zm5.85-.82v-.7l-2.23.14c-1.11.07-1.74.55-1.74,1.32s.65,1.31,1.65,1.31A2.17,2.17,0,0,0,132,27.79Z"/><path d="M139,22c2,0,3.45,1.11,3.49,2.71h-1.75c-.08-.8-.76-1.29-1.79-1.29s-1.68.47-1.68,1.17c0,.54.45.91,1.39,1.14l1.52.35c1.83.44,2.52,1.11,2.52,2.44,0,1.63-1.55,2.75-3.76,2.75s-3.58-1.09-3.71-2.75h1.84c.13.87.82,1.34,1.95,1.34s1.81-.46,1.81-1.18c0-.56-.35-.86-1.29-1.1l-1.62-.4c-1.64-.39-2.46-1.23-2.46-2.48C135.45,23.12,136.89,22,139,22Z"/><path d="M146.72,20v2.14h1.73V23.6h-1.73v5c0,.77.35,1.13,1.11,1.13a5.19,5.19,0,0,0,.61,0v1.46a4.58,4.58,0,0,1-1,.09c-1.83,0-2.54-.69-2.54-2.44V23.6h-1.32V22.12h1.32V20Z"/><path d="M153.44,22c2,0,3.45,1.11,3.49,2.71h-1.75c-.08-.8-.76-1.29-1.79-1.29s-1.68.47-1.68,1.17c0,.54.45.91,1.39,1.14l1.52.35c1.83.44,2.52,1.11,2.52,2.44,0,1.63-1.55,2.75-3.77,2.75s-3.57-1.09-3.7-2.75h1.84c.13.87.82,1.34,2,1.34s1.81-.46,1.81-1.18c0-.56-.35-.86-1.29-1.1l-1.62-.4c-1.64-.39-2.46-1.23-2.46-2.48C149.9,23.12,151.33,22,153.44,22Z"/><path d="M43,14.66H39.24v-6h.92v5.12H43Z"/><path d="M44,8.83a.56.56,0,0,1,.58-.55.55.55,0,1,1,0,1.09A.55.55,0,0,1,44,8.83Zm.14,1.33h.88v4.5h-.88Z"/><path d="M48.13,10.07c1,0,1.68.47,1.76,1.27H49c-.08-.33-.4-.55-.91-.55s-.87.24-.87.59.23.44.71.55l.75.18c.86.19,1.26.56,1.26,1.22,0,.85-.79,1.42-1.87,1.42s-1.77-.49-1.84-1.28h.88a.93.93,0,0,0,1,.56c.56,0,.95-.25.95-.61s-.21-.44-.66-.55l-.79-.18c-.85-.2-1.25-.59-1.25-1.26S47.11,10.07,48.13,10.07Z"/><path d="M52.35,9v1.14h1v.75h-1v2.31c0,.47.19.68.63.68l.34,0v.74a2.36,2.36,0,0,1-.48,0c-1,0-1.38-.35-1.38-1.22V10.93h-.72v-.75h.72V9Z"/><path d="M58.25,13.45a1.83,1.83,0,0,1-2,1.3,2,2,0,0,1-2.08-2.33,2.08,2.08,0,0,1,2.08-2.35c1.25,0,2,.86,2,2.27v.31H55.13v0A1.19,1.19,0,0,0,56.33,14a1.09,1.09,0,0,0,1.07-.54ZM55.13,12H57.4a1.08,1.08,0,0,0-1.11-1.16A1.15,1.15,0,0,0,55.13,12Z"/><path d="M59.5,10.16h.86v.71h.06a1.36,1.36,0,0,1,1.35-.8c1,0,1.55.6,1.55,1.68v2.91h-.88V12c0-.72-.32-1.08-1-1.08A1,1,0,0,0,60.39,12v2.63H59.5Z"/><path d="M66.92,12.41a2.13,2.13,0,1,1,4.24,0,2.13,2.13,0,1,1-4.24,0Zm3.33,0c0-1-.44-1.55-1.21-1.55s-1.2.57-1.2,1.55S68.27,14,69,14,70.25,13.39,70.25,12.41Z"/><path d="M72.36,10.16h.85v.71h.07a1.35,1.35,0,0,1,1.34-.8c1,0,1.56.6,1.56,1.68v2.91h-.89V12c0-.72-.31-1.08-1-1.08A1,1,0,0,0,73.25,12v2.63h-.89Z"/></svg>