<?xml version="1.0" encoding="UTF-8"?>
<svg width="134px" height="34px" viewBox="0 0 134 34" version="1.1" xmlns="http://www.w3.org/2000/svg" xmlns:xlink="http://www.w3.org/1999/xlink">
    <!-- Generator: Sketch 63.1 (92452) - https://sketch.com -->
    <title>ZH-HK_Google_Podcast_Badge</title>
    <desc>Created with Sketch.</desc>
    <g id="ZH-HK_Google_Podcast_Badge" stroke="none" stroke-width="1" fill="none" fill-rule="evenodd">
        <g id="Rectangle_solid" fill="#FFFFFF" stroke="#9AA0A6" stroke-width="0.5">
            <rect id="Rectangle" x="0.25" y="0.25" width="133.5" height="33.5" rx="8"></rect>
        </g>
        <g id="Podcast_icon_final" transform="translate(5.000000, 5.000000)">
            <g id="logo_podcasts_192px">
                <rect id="Rectangle-path" x="0" y="0" width="24" height="24"></rect>
                <path d="M2.375,9.875 C1.615,9.875 1,10.49 1,11.25 L1,12.75 C1,13.51 1.615,14.125 2.375,14.125 C3.135,14.125 3.75,13.51 3.75,12.75 L3.75,11.25 C3.75,10.49 3.135,9.875 2.375,9.875 Z" id="Shape" fill="#0066D9" fill-rule="nonzero"></path>
                <path d="M21.625,9.875 C20.865,9.875 20.25,10.49 20.25,11.25 L20.25,12.75 C20.25,13.51 20.865,14.125 21.625,14.125 C22.385,14.125 23,13.51 23,12.75 L23,11.25 C23,10.49 22.385,9.875 21.625,9.875 Z" id="Shape" fill="#4285F4" fill-rule="nonzero"></path>
                <path d="M7.125,14.375 C6.365,14.375 5.75,14.99 5.75,15.75 L5.75,17.25 C5.75,18.01 6.365,18.625 7.125,18.625 C7.885,18.625 8.5,18.01 8.5,17.25 L8.5,15.75 C8.5,14.99 7.885,14.375 7.125,14.375 Z" id="Shape" fill="#EA4335" fill-rule="nonzero"></path>
                <path d="M7.125,5.375 C6.365,5.375 5.75,5.99 5.75,6.75 L5.75,11.65625 L5.75125,11.65625 C5.76875,12.40125 6.37625,13 7.125,13 C7.87375,13 8.48125,12.40125 8.49875,11.65625 L8.5,11.65625 L8.5,6.75 C8.5,5.99 7.885,5.375 7.125,5.375 Z" id="Shape" fill="#EA4335" fill-rule="nonzero"></path>
                <path d="M16.875,5.375 C16.115,5.375 15.5,5.99 15.5,6.75 L15.5,8.25 C15.5,9.01 16.115,9.625 16.875,9.625 C17.635,9.625 18.25,9.01 18.25,8.25 L18.25,6.75 C18.25,5.99 17.635,5.375 16.875,5.375 Z" id="Shape" fill="#34A853" fill-rule="nonzero"></path>
                <path d="M12,1 C11.24,1 10.625,1.615 10.625,2.375 L10.625,3.875 C10.625,4.635 11.24,5.25 12,5.25 C12.76,5.25 13.375,4.635 13.375,3.875 L13.375,2.375 C13.375,1.615 12.76,1 12,1 Z" id="Shape" fill="#FAB908" fill-rule="nonzero"></path>
                <path d="M12,18.75 C11.24,18.75 10.625,19.365 10.625,20.125 L10.625,21.625 C10.625,22.385 11.24,23 12,23 C12.76,23 13.375,22.385 13.375,21.625 L13.375,20.125 C13.375,19.365 12.76,18.75 12,18.75 Z" id="Shape" fill="#FAB908" fill-rule="nonzero"></path>
                <path d="M16.875,11 C16.115,11 15.5,11.615 15.5,12.375 L15.5,17.25 C15.5,18.01 16.115,18.625 16.875,18.625 C17.635,18.625 18.25,18.01 18.25,17.25 L18.25,12.375 C18.25,11.615 17.635,11 16.875,11 Z" id="Shape" fill="#34A853" fill-rule="nonzero"></path>
                <path d="M13.375,8 C13.375,7.24 12.76,6.625 12,6.625 C11.24,6.625 10.625,7.24 10.625,8 L10.625,8 L10.625,11.33375 L10.625,12.6675 L10.625,16 L10.625,16 C10.625,16.76 11.24,17.375 12,17.375 C12.76,17.375 13.375,16.76 13.375,16 L13.375,16 L13.375,12.66625 L13.375,11.33375 L13.375,8 L13.375,8 Z" id="Shape" fill="#FAB908" fill-rule="nonzero"></path>
            </g>
        </g>
        <g id="Group" transform="translate(35.000000, 4.000000)">
            <polygon id="Rectangle-path" points="0 2 91 2 91 16 0 16"></polygon>
            <path d="M44.95,12.5 L44.95,8.85 L46.9125,8.85 C47.4125,8.85 47.875,8.7375 48.3,8.5125 C48.725,8.2875 49.0645833,7.97291667 49.31875,7.56875 C49.5729167,7.16458333 49.7,6.70833333 49.7,6.2 C49.7,5.69166667 49.5729167,5.23541667 49.31875,4.83125 C49.0645833,4.42708333 48.725,4.1125 48.3,3.8875 C47.875,3.6625 47.4125,3.55 46.9125,3.55 L46.9125,3.55 L43.9,3.55 L43.9,12.5 L44.95,12.5 Z M46.9375,7.8375 L44.95,7.8375 L44.95,4.5625 L46.9375,4.5625 C47.2708333,4.5625 47.5645833,4.64166667 47.81875,4.8 C48.0729167,4.95833333 48.2708333,5.1625 48.4125,5.4125 C48.5541667,5.6625 48.625,5.925 48.625,6.2 C48.625,6.475 48.5541667,6.7375 48.4125,6.9875 C48.2708333,7.2375 48.0729167,7.44166667 47.81875,7.6 C47.5645833,7.75833333 47.2708333,7.8375 46.9375,7.8375 L46.9375,7.8375 Z M53.2125,12.7 C53.8375,12.7 54.4,12.55 54.9,12.25 C55.4,11.95 55.7895833,11.5416667 56.06875,11.025 C56.3479167,10.5083333 56.4875,9.9375 56.4875,9.3125 C56.4875,8.6875 56.3479167,8.11666667 56.06875,7.6 C55.7895833,7.08333333 55.4,6.675 54.9,6.375 C54.4,6.075 53.8375,5.925 53.2125,5.925 C52.5875,5.925 52.025,6.075 51.525,6.375 C51.025,6.675 50.6354167,7.08333333 50.35625,7.6 C50.0770833,8.11666667 49.9375,8.6875 49.9375,9.3125 C49.9375,9.9375 50.0770833,10.5083333 50.35625,11.025 C50.6354167,11.5416667 51.025,11.95 51.525,12.25 C52.025,12.55 52.5875,12.7 53.2125,12.7 Z M53.2125,11.7375 C52.8208333,11.7375 52.4541667,11.6395833 52.1125,11.44375 C51.7708333,11.2479167 51.4979167,10.9666667 51.29375,10.6 C51.0895833,10.2333333 50.9875,9.80416667 50.9875,9.3125 C50.9875,8.82083333 51.0895833,8.39166667 51.29375,8.025 C51.4979167,7.65833333 51.7708333,7.37708333 52.1125,7.18125 C52.4541667,6.98541667 52.8208333,6.8875 53.2125,6.8875 C53.6041667,6.8875 53.96875,6.98541667 54.30625,7.18125 C54.64375,7.37708333 54.9145833,7.65833333 55.11875,8.025 C55.3229167,8.39166667 55.425,8.82083333 55.425,9.3125 C55.425,9.80416667 55.3229167,10.2333333 55.11875,10.6 C54.9145833,10.9666667 54.64375,11.2479167 54.30625,11.44375 C53.96875,11.6395833 53.6041667,11.7375 53.2125,11.7375 Z M60.25,12.7 C60.7416667,12.7 61.1791667,12.5895833 61.5625,12.36875 C61.9458333,12.1479167 62.2375,11.8791667 62.4375,11.5625 L62.4375,11.5625 L62.4875,11.5625 L62.4875,12.5 L63.5,12.5 L63.5,3.55 L62.4375,3.55 L62.4375,6.1875 L62.4875,7.075 L62.4375,7.075 C62.2375,6.75 61.9458333,6.47708333 61.5625,6.25625 C61.1791667,6.03541667 60.7416667,5.925 60.25,5.925 C59.6833333,5.925 59.16875,6.07083333 58.70625,6.3625 C58.24375,6.65416667 57.8791667,7.05833333 57.6125,7.575 C57.3458333,8.09166667 57.2125,8.67083333 57.2125,9.3125 C57.2125,9.9625 57.3458333,10.54375 57.6125,11.05625 C57.8791667,11.56875 58.24375,11.9708333 58.70625,12.2625 C59.16875,12.5541667 59.6833333,12.7 60.25,12.7 Z M60.375,11.7375 C60.0083333,11.7375 59.6625,11.6375 59.3375,11.4375 C59.0125,11.2375 58.7520833,10.9520833 58.55625,10.58125 C58.3604167,10.2104167 58.2625,9.7875 58.2625,9.3125 C58.2625,8.8375 58.3604167,8.41458333 58.55625,8.04375 C58.7520833,7.67291667 59.0125,7.3875 59.3375,7.1875 C59.6625,6.9875 60.0083333,6.8875 60.375,6.8875 C60.75,6.8875 61.0979167,6.9875 61.41875,7.1875 C61.7395833,7.3875 61.9979167,7.67083333 62.19375,8.0375 C62.3895833,8.40416667 62.4875,8.82916667 62.4875,9.3125 C62.4875,9.79583333 62.3895833,10.2208333 62.19375,10.5875 C61.9979167,10.9541667 61.7395833,11.2375 61.41875,11.4375 C61.0979167,11.6375 60.75,11.7375 60.375,11.7375 Z M67.725,12.7 C68.4083333,12.7 68.9895833,12.5375 69.46875,12.2125 C69.9479167,11.8875 70.2958333,11.4625 70.5125,10.9375 L70.5125,10.9375 L69.5625,10.5375 C69.4041667,10.9208333 69.1625,11.2166667 68.8375,11.425 C68.5125,11.6333333 68.125,11.7375 67.675,11.7375 C67.3,11.7375 66.95,11.6354167 66.625,11.43125 C66.3,11.2270833 66.0395833,10.9416667 65.84375,10.575 C65.6479167,10.2083333 65.55,9.7875 65.55,9.3125 C65.55,8.8375 65.6479167,8.41666667 65.84375,8.05 C66.0395833,7.68333333 66.3,7.39791667 66.625,7.19375 C66.95,6.98958333 67.3,6.8875 67.675,6.8875 C68.1166667,6.8875 68.49375,6.98958333 68.80625,7.19375 C69.11875,7.39791667 69.3541667,7.69583333 69.5125,8.0875 L69.5125,8.0875 L70.475,7.6875 C70.275,7.15416667 69.9395833,6.72708333 69.46875,6.40625 C68.9979167,6.08541667 68.4166667,5.925 67.725,5.925 C67.1083333,5.925 66.5541667,6.07083333 66.0625,6.3625 C65.5708333,6.65416667 65.1875,7.05833333 64.9125,7.575 C64.6375,8.09166667 64.5,8.67083333 64.5,9.3125 C64.5,9.95416667 64.6375,10.53125 64.9125,11.04375 C65.1875,11.55625 65.5708333,11.9604167 66.0625,12.25625 C66.5541667,12.5520833 67.1083333,12.7 67.725,12.7 Z M73.4625,12.7 C73.9208333,12.7 74.3333333,12.5916667 74.7,12.375 C75.0666667,12.1583333 75.3416667,11.8958333 75.525,11.5875 L75.525,11.5875 L75.575,11.5875 L75.575,12.5 L76.5875,12.5 L76.5875,8.4625 C76.5875,7.67916667 76.3395833,7.06041667 75.84375,6.60625 C75.3479167,6.15208333 74.6666667,5.925 73.8,5.925 C73.2666667,5.925 72.78125,6.03333333 72.34375,6.25 C71.90625,6.46666667 71.5625,6.76666667 71.3125,7.15 L71.3125,7.15 L72.1125,7.75 C72.2875,7.475 72.525,7.26041667 72.825,7.10625 C73.125,6.95208333 73.4541667,6.875 73.8125,6.875 C74.3208333,6.875 74.7416667,7.01875 75.075,7.30625 C75.4083333,7.59375 75.575,7.975 75.575,8.45 L75.575,8.45 L75.575,8.8375 C75.4,8.72916667 75.1479167,8.63333333 74.81875,8.55 C74.4895833,8.46666667 74.1333333,8.425 73.75,8.425 C72.975,8.425 72.3333333,8.61458333 71.825,8.99375 C71.3166667,9.37291667 71.0625,9.9 71.0625,10.575 C71.0625,10.9833333 71.1625,11.3479167 71.3625,11.66875 C71.5625,11.9895833 71.8458333,12.2416667 72.2125,12.425 C72.5791667,12.6083333 72.9958333,12.7 73.4625,12.7 Z M73.5625,11.7625 C73.1541667,11.7625 72.8166667,11.6541667 72.55,11.4375 C72.2833333,11.2208333 72.15,10.9375 72.15,10.5875 C72.15,10.2041667 72.2979167,9.89166667 72.59375,9.65 C72.8895833,9.40833333 73.3291667,9.2875 73.9125,9.2875 C74.2375,9.2875 74.5458333,9.32916667 74.8375,9.4125 C75.1291667,9.49583333 75.375,9.60416667 75.575,9.7375 C75.575,10.1041667 75.4833333,10.4416667 75.3,10.75 C75.1166667,11.0583333 74.8708333,11.3041667 74.5625,11.4875 C74.2541667,11.6708333 73.9208333,11.7625 73.5625,11.7625 Z M80.05,12.7 C80.5166667,12.7 80.9416667,12.6208333 81.325,12.4625 C81.7083333,12.3041667 82.0125,12.0770833 82.2375,11.78125 C82.4625,11.4854167 82.575,11.1416667 82.575,10.75 C82.575,10.3 82.4166667,9.91875 82.1,9.60625 C81.7833333,9.29375 81.3125,9.05833333 80.6875,8.9 L80.6875,8.9 L79.7625,8.6625 C79.3958333,8.57083333 79.1208333,8.45208333 78.9375,8.30625 C78.7541667,8.16041667 78.6625,7.97083333 78.6625,7.7375 C78.6625,7.4875 78.79375,7.28125 79.05625,7.11875 C79.31875,6.95625 79.625,6.875 79.975,6.875 C80.7,6.875 81.2041667,7.15833333 81.4875,7.725 L81.4875,7.725 L82.4125,7.3 C82.2291667,6.86666667 81.91875,6.52916667 81.48125,6.2875 C81.04375,6.04583333 80.5458333,5.925 79.9875,5.925 C79.5625,5.925 79.1666667,6 78.8,6.15 C78.4333333,6.3 78.1395833,6.51458333 77.91875,6.79375 C77.6979167,7.07291667 77.5875,7.39583333 77.5875,7.7625 C77.5875,8.2375 77.75,8.625 78.075,8.925 C78.4,9.225 78.8166667,9.4375 79.325,9.5625 L79.325,9.5625 L80.1,9.7625 C80.5833333,9.87916667 80.9375,10.01875 81.1625,10.18125 C81.3875,10.34375 81.5,10.5583333 81.5,10.825 C81.5,11.125 81.3583333,11.35625 81.075,11.51875 C80.7916667,11.68125 80.45,11.7625 80.05,11.7625 C79.675,11.7625 79.33125,11.6583333 79.01875,11.45 C78.70625,11.2416667 78.4708333,10.9458333 78.3125,10.5625 L78.3125,10.5625 L77.3625,10.9875 C77.5541667,11.4875 77.8791667,11.8979167 78.3375,12.21875 C78.7958333,12.5395833 79.3666667,12.7 80.05,12.7 Z M85.95,12.6 C86.15,12.6 86.3145833,12.5875 86.44375,12.5625 C86.5729167,12.5375 86.7,12.4958333 86.825,12.4375 L86.825,12.4375 L86.825,11.4 C86.6,11.5416667 86.3666667,11.6125 86.125,11.6125 C85.825,11.6125 85.5958333,11.5208333 85.4375,11.3375 C85.3041667,11.1708333 85.2375,10.9125 85.2375,10.5625 L85.2375,10.5625 L85.2375,7.0875 L86.7875,7.0875 L86.7875,6.125 L85.2375,6.125 L85.2375,4.325 L84.175,4.325 L84.175,6.125 L83.0625,6.125 L83.0625,7.0875 L84.175,7.0875 L84.175,10.825 C84.175,11.125 84.2166667,11.3791667 84.3,11.5875 C84.3833333,11.7958333 84.5083333,11.9791667 84.675,12.1375 C84.825,12.2791667 85.0104167,12.3916667 85.23125,12.475 C85.4520833,12.5583333 85.6916667,12.6 85.95,12.6 Z M90.25,12.7 C90.7166667,12.7 91.1416667,12.6208333 91.525,12.4625 C91.9083333,12.3041667 92.2125,12.0770833 92.4375,11.78125 C92.6625,11.4854167 92.775,11.1416667 92.775,10.75 C92.775,10.3 92.6166667,9.91875 92.3,9.60625 C91.9833333,9.29375 91.5125,9.05833333 90.8875,8.9 L90.8875,8.9 L89.9625,8.6625 C89.5958333,8.57083333 89.3208333,8.45208333 89.1375,8.30625 C88.9541667,8.16041667 88.8625,7.97083333 88.8625,7.7375 C88.8625,7.4875 88.99375,7.28125 89.25625,7.11875 C89.51875,6.95625 89.825,6.875 90.175,6.875 C90.9,6.875 91.4041667,7.15833333 91.6875,7.725 L91.6875,7.725 L92.6125,7.3 C92.4291667,6.86666667 92.11875,6.52916667 91.68125,6.2875 C91.24375,6.04583333 90.7458333,5.925 90.1875,5.925 C89.7625,5.925 89.3666667,6 89,6.15 C88.6333333,6.3 88.3395833,6.51458333 88.11875,6.79375 C87.8979167,7.07291667 87.7875,7.39583333 87.7875,7.7625 C87.7875,8.2375 87.95,8.625 88.275,8.925 C88.6,9.225 89.0166667,9.4375 89.525,9.5625 L89.525,9.5625 L90.3,9.7625 C90.7833333,9.87916667 91.1375,10.01875 91.3625,10.18125 C91.5875,10.34375 91.7,10.5583333 91.7,10.825 C91.7,11.125 91.5583333,11.35625 91.275,11.51875 C90.9916667,11.68125 90.65,11.7625 90.25,11.7625 C89.875,11.7625 89.53125,11.6583333 89.21875,11.45 C88.90625,11.2416667 88.6708333,10.9458333 88.5125,10.5625 L88.5125,10.5625 L87.5625,10.9875 C87.7541667,11.4875 88.0791667,11.8979167 88.5375,12.21875 C88.9958333,12.5395833 89.5666667,12.7 90.25,12.7 Z" id="Podcasts" fill="#3C4043" fill-rule="nonzero"></path>
            <path d="M28.2333333,6.08333333 C29.0208333,6.08333333 29.6430556,6.43333333 29.9638889,6.82222222 L30.0125,6.82222222 L30.0125,6.2875 L31.3930556,6.2875 L31.3930556,12.1888889 C31.3930556,14.6194444 29.9638889,15.6111111 28.2722222,15.6111111 C26.6777778,15.6111111 25.7152778,14.5416667 25.3555556,13.6666667 L26.6097222,13.1416667 C26.8333333,13.6763889 27.3777778,14.3083333 28.2625,14.3083333 C29.3416667,14.3083333 30.0125,13.6375 30.0125,12.3833333 L30.0125,11.9069444 L29.9638889,11.9069444 C29.6430556,12.3055556 29.0208333,12.6555556 28.2333333,12.6555556 C26.5902778,12.6555556 25.0833333,11.2166667 25.0833333,9.37916667 C25.0833333,7.52222222 26.5902778,6.08333333 28.2333333,6.08333333 Z M13.9902778,6.18055556 C15.8083333,6.18055556 17.2861111,7.56111111 17.2861111,9.46666667 C17.2861111,11.3625 15.8083333,12.7527778 13.9902778,12.7527778 C12.1722222,12.7527778 10.6944444,11.3625 10.6944444,9.46666667 C10.6944444,7.56111111 12.1722222,6.18055556 13.9902778,6.18055556 Z M21.1847222,6.18055556 C23.0027778,6.18055556 24.4805556,7.56111111 24.4805556,9.46666667 C24.4805556,11.3625 23.0027778,12.7527778 21.1847222,12.7527778 C19.3666667,12.7527778 17.8888889,11.3625 17.8888889,9.46666667 C17.8888889,7.56111111 19.3666667,6.18055556 21.1847222,6.18055556 Z M37.6152778,6.18055556 C39.3166667,6.18055556 40.1527778,7.53194444 40.425,8.27083333 L40.5708333,8.64027778 L36.1763889,10.4583333 C36.5166667,11.1097222 37.0319444,11.45 37.7708333,11.45 C38.5097222,11.45 39.0152778,11.0902778 39.3944444,10.5458333 L40.5125,11.2944444 C40.1430556,11.8291667 39.2777778,12.7527778 37.7708333,12.7527778 C35.9041667,12.7527778 34.5138889,11.3041667 34.5138889,9.46666667 C34.5138889,7.5125 35.9236111,6.18055556 37.6152778,6.18055556 Z M5.47361111,2.48611111 C7.02916667,2.48611111 8.1375,3.09861111 8.97361111,3.89583333 L7.98194444,4.87777778 C7.38888889,4.31388889 6.58194444,3.87638889 5.47361111,3.87638889 C3.42222222,3.87638889 1.81805556,5.52916667 1.81805556,7.58055556 C1.81805556,9.63194444 3.42222222,11.2847222 5.47361111,11.2847222 C6.80555556,11.2847222 7.56388889,10.75 8.05,10.2638889 C8.44861111,9.86527778 8.71111111,9.29166667 8.80833333,8.51388889 L5.47361111,8.51388889 L5.47361111,7.12361111 L10.1694444,7.12361111 C10.2180556,7.37638889 10.2472222,7.66805556 10.2472222,7.99861111 C10.2472222,9.04861111 9.96527778,10.3416667 9.04166667,11.2555556 C8.1375,12.1888889 6.99027778,12.6847222 5.47361111,12.6847222 C2.65416667,12.6847222 0.291666667,10.4 0.291666667,7.59027778 C0.291666667,4.77083333 2.65416667,2.48611111 5.47361111,2.48611111 Z M33.8138889,2.875 L33.8138889,12.5291667 L32.375,12.5291667 L32.375,2.875 L33.8138889,2.875 Z M13.9902778,7.46388889 C12.9888889,7.46388889 12.1333333,8.27083333 12.1333333,9.45694444 C12.1333333,10.6333333 12.9986111,11.45 13.9902778,11.45 C14.9819444,11.45 15.8472222,10.6333333 15.8472222,9.45694444 C15.8472222,8.27083333 14.9819444,7.46388889 13.9902778,7.46388889 Z M21.1847222,7.46388889 C20.1833333,7.46388889 19.3277778,8.27083333 19.3277778,9.45694444 C19.3277778,10.6333333 20.1930556,11.45 21.1847222,11.45 C22.1763889,11.45 23.0416667,10.6333333 23.0416667,9.45694444 C23.0416667,8.27083333 22.1861111,7.46388889 21.1847222,7.46388889 Z M28.3597222,7.37638889 C27.3680556,7.37638889 26.5319444,8.22222222 26.5319444,9.37916667 C26.5319444,10.5263889 27.3680556,11.3625 28.3597222,11.3625 C29.3416667,11.3625 30.1194444,10.5361111 30.1097222,9.37916667 C30.1097222,8.22222222 29.3416667,7.37638889 28.3597222,7.37638889 Z M37.6638889,7.44444444 C36.925,7.44444444 35.9041667,8.09583333 35.9430556,9.35972222 L38.8791667,8.14444444 C38.7236111,7.72638889 38.2375,7.44444444 37.6638889,7.44444444 Z" id="Combined-Shape" fill="#3C4043" fill-rule="nonzero"></path>
        </g>
        <path d="M43.514,27.54 L43.514,26.91 L39.41,26.91 L39.41,23.058 L42.749,23.058 L42.749,22.428 L39.41,22.428 L39.41,19.647 L38.744,19.647 L38.744,26.91 L35.504,26.91 L35.504,27.54 L43.514,27.54 Z M52.46,27.936 L52.901,27.414 C52.109,26.838 51.425,26.181 50.831,25.443 C51.497,24.399 51.857,23.13 51.92,21.654 L52.694,21.654 L52.694,21.015 L49.688,21.015 C49.796,20.619 49.895,20.187 49.985,19.728 L49.337,19.62 C49.076,21.204 48.572,22.473 47.834,23.409 L48.239,23.904 C48.428,23.679 48.608,23.436 48.779,23.166 C49.103,23.994 49.526,24.759 50.03,25.479 C49.472,26.217 48.716,26.82 47.771,27.288 L48.14,27.873 C49.076,27.369 49.841,26.748 50.435,26.001 C51.002,26.703 51.677,27.351 52.46,27.936 Z M47.654,27.846 L47.654,19.692 L47.015,19.692 L47.015,24.885 C46.565,25.056 46.115,25.209 45.665,25.335 L45.665,20.421 L45.035,20.421 L45.035,25.353 C45.035,25.443 44.963,25.515 44.837,25.569 L45.035,26.118 C45.719,25.938 46.385,25.74 47.015,25.515 L47.015,27.846 L47.654,27.846 Z M50.417,24.894 C49.895,24.156 49.481,23.346 49.157,22.464 C49.274,22.212 49.382,21.942 49.49,21.654 L51.299,21.654 C51.245,22.896 50.957,23.976 50.417,24.894 Z M61.694,23.742 L61.694,21.573 L59.894,21.573 L59.894,20.862 L61.874,20.862 L61.874,20.295 L59.894,20.295 L59.894,19.674 L59.282,19.674 L59.282,20.295 L57.392,20.295 L57.392,20.862 L59.282,20.862 L59.282,21.573 L57.518,21.573 L57.518,23.742 L61.694,23.742 Z M56.798,27.918 L56.798,20.556 L57.167,20.556 L57.167,19.998 L53.891,19.998 L53.891,20.556 L54.386,20.556 L54.386,23.58 L53.909,23.58 L53.909,24.102 L56.222,24.102 L56.222,27.918 L56.798,27.918 Z M56.222,21.231 L54.962,21.231 L54.962,20.556 L56.222,20.556 L56.222,21.231 Z M56.222,22.374 L54.962,22.374 L54.962,21.708 L56.222,21.708 L56.222,22.374 Z M61.154,23.238 L60.443,23.238 L60.443,22.095 L61.154,22.095 L61.154,23.238 Z M59.957,23.238 L59.246,23.238 L59.246,22.095 L59.957,22.095 L59.957,23.238 Z M58.76,23.238 L58.049,23.238 L58.049,22.095 L58.76,22.095 L58.76,23.238 Z M56.222,23.58 L54.962,23.58 L54.962,22.851 L56.222,22.851 L56.222,23.58 Z M61.856,24.84 L61.856,24.3 L57.329,24.3 L57.329,24.84 L61.856,24.84 Z M53.927,27.675 C54.818,27.585 55.493,27.468 55.961,27.324 L55.961,26.865 C55.727,26.919 55.466,26.973 55.169,27.018 L55.169,26.289 L55.862,26.289 L55.862,25.803 L55.169,25.803 L55.169,25.092 L55.898,25.092 L55.898,24.606 L53.936,24.606 L53.936,25.092 L54.638,25.092 L54.638,25.803 L53.963,25.803 L53.963,26.289 L54.638,26.289 L54.638,27.09 C54.395,27.108 54.134,27.126 53.846,27.144 L53.927,27.675 Z M60.128,26.433 L60.56,26.136 C60.362,25.83 60.101,25.479 59.768,25.083 L59.363,25.335 C59.687,25.731 59.939,26.1 60.128,26.433 Z M61.622,27.342 L62.135,27.117 C61.919,26.46 61.676,25.848 61.388,25.272 L60.866,25.434 C61.136,25.983 61.388,26.622 61.622,27.342 Z M60.254,27.765 C60.497,27.765 60.677,27.711 60.785,27.612 C60.911,27.486 61.001,27.153 61.046,26.595 L60.497,26.415 C60.479,26.802 60.434,27.036 60.38,27.108 C60.335,27.171 60.254,27.207 60.146,27.207 L59.282,27.207 C59.102,27.207 59.021,27.126 59.021,26.973 L59.021,25.389 L58.445,25.389 L58.445,27.09 C58.445,27.54 58.661,27.765 59.111,27.765 L60.254,27.765 Z M57.311,27.594 C57.653,27.018 57.914,26.334 58.094,25.542 L57.581,25.443 C57.428,26.118 57.185,26.739 56.861,27.306 L57.311,27.594 Z" id="上收聽" fill="#5F6368" fill-rule="nonzero"></path>
    </g>
</svg>