<svg id="圖層_1" data-name="圖層 1" xmlns="http://www.w3.org/2000/svg" viewBox="0 0 24.78 24.78"><defs><style>.cls-1{fill:#fff;}.cls-2{fill:#19aae1;}</style></defs><circle class="cls-1" cx="12.39" cy="12.39" r="10.71"/><path class="cls-2" d="M17.75,12.23a2.36,2.36,0,0,0-2.41-2.31,3,3,0,0,0-.42.05,2.37,2.37,0,0,0-1.57,1.22,4.89,4.89,0,0,0-.24,1.74,3.26,3.26,0,0,1-6.49-.38.52.52,0,0,0-1,0,4.3,4.3,0,0,0,8.6.19c0-.65,0-1.28.68-1.63a1.29,1.29,0,0,1,1.73.57,1.18,1.18,0,0,1,.14.55c0,.68,1.08.68,1.05,0" transform="translate(-0.25)"/><path class="cls-2" d="M19.73,12.23a4.3,4.3,0,1,0-8.6-.19c0,.65,0,1.28-.69,1.63a1.28,1.28,0,0,1-1.72-.56,1.22,1.22,0,0,1-.14-.56c0-.68-1.09-.68-1,0a2.32,2.32,0,0,0,4.39,1,4.72,4.72,0,0,0,.22-1.67,3.26,3.26,0,0,1,6.49.38.53.53,0,0,0,.6.45.52.52,0,0,0,.45-.45" transform="translate(-0.25)"/><path class="cls-2" d="M12.64,24.78A12.39,12.39,0,1,1,25,12.39h0A12.41,12.41,0,0,1,12.64,24.78m0-23.1A10.71,10.71,0,1,0,23.35,12.39h0A10.73,10.73,0,0,0,12.64,1.68" transform="translate(-0.25)"/></svg>