<svg id="圖層_1" data-name="圖層 1" xmlns="http://www.w3.org/2000/svg" viewBox="0 0 93.56 94"><defs><style>.cls-1{fill:#1ed760;fill-rule:evenodd;}</style></defs><ellipse cx="46.78" cy="47" rx="46.78" ry="47"/><g id="spotify-podcast-badge-blk-grn-660x160"><g id="Group-2"><path id="Combined-Shape" class="cls-1" d="M88.28,53.33a4.36,4.36,0,0,0,6-1.53,4.42,4.42,0,0,0-1.53-6C75.4,35.42,48,34.44,31.44,39.48A4.4,4.4,0,0,0,34,47.9C48.36,43.51,73.21,44.33,88.28,53.33Zm-.49,13.33a3.68,3.68,0,0,0-1.2-5C72.16,52.71,51.06,50.2,34.08,55.38a3.66,3.66,0,0,0,2.12,7c14.86-4.54,34-2.29,46.57,5.48A3.66,3.66,0,0,0,87.79,66.66Zm-5.72,12.8a2.94,2.94,0,0,0-1-4c-12.32-7.57-27.59-9.33-45.4-5.24A2.93,2.93,0,0,0,37,75.9c16.27-3.74,30.08-2.21,41.06,4.53A2.91,2.91,0,0,0,82.07,79.46ZM60.63,11.67a47,47,0,1,1-46.74,47A46.86,46.86,0,0,1,60.63,11.67Z" transform="translate(-13.81 -11.67)"/></g></g></svg>